<svg width="22" height="22" viewBox="0 0 22 22" fill="none" xmlns="http://www.w3.org/2000/svg">
<g id="Virus">
<path id="Vector" fill-rule="evenodd" clip-rule="evenodd" d="M9 1.75L10.25 1.75V5.29853C9.22335 5.43239 8.28141 5.83722 7.49916 6.43828L4.4751 3.41422L5.35898 2.53034C5.65187 2.23744 5.65187 1.76257 5.35898 1.46967C5.06609 1.17678 4.59121 1.17678 4.29832 1.46967L1.46989 4.2981C1.177 4.59099 1.177 5.06587 1.46989 5.35876C1.76278 5.65166 2.23766 5.65166 2.53055 5.35876L3.41444 4.47488L6.43848 7.49892C5.83732 8.28121 5.4324 9.2232 5.29852 10.25H1.75L1.75 9C1.75 8.58579 1.41421 8.25 1 8.25C0.585787 8.25 0.25 8.58579 0.25 9V13C0.25 13.4142 0.585786 13.75 1 13.75C1.41421 13.75 1.75 13.4142 1.75 13L1.75 11.75H5.29852C5.43242 12.7769 5.83743 13.7191 6.43873 14.5014L3.40936 17.5911L2.53055 16.7123C2.23766 16.4194 1.76278 16.4194 1.46989 16.7123C1.177 17.0052 1.177 17.4801 1.46989 17.773L4.29832 20.6014C4.59121 20.8943 5.06609 20.8943 5.35898 20.6014C5.65187 20.3085 5.65187 19.8336 5.35898 19.5407L4.47008 18.6518L7.49955 15.562C8.28172 16.1629 9.22352 16.5676 10.25 16.7015V20.25H9C8.58579 20.25 8.25 20.5858 8.25 21C8.25 21.4142 8.58579 21.75 9 21.75H13C13.4142 21.75 13.75 21.4142 13.75 21C13.75 20.5858 13.4142 20.25 13 20.25H11.75V16.7015C12.7766 16.5676 13.7186 16.1628 14.5008 15.5617L17.596 18.657L16.7123 19.5407C16.4194 19.8336 16.4194 20.3085 16.7123 20.6014C17.0052 20.8943 17.4801 20.8943 17.773 20.6014L20.6014 17.773C20.8943 17.4801 20.8943 17.0052 20.6014 16.7123C20.3085 16.4194 19.8336 16.4194 19.5407 16.7123L18.6567 17.5964L15.5615 14.5011C16.1627 13.7188 16.5676 12.7768 16.7015 11.75H20.25V13C20.25 13.4142 20.5858 13.75 21 13.75C21.4142 13.75 21.75 13.4142 21.75 13V9C21.75 8.58579 21.4142 8.25 21 8.25C20.5858 8.25 20.25 8.58579 20.25 9V10.25H16.7015C16.5676 9.22347 16.1629 8.2817 15.562 7.49954L18.6517 4.46976L19.5407 5.35876C19.8336 5.65166 20.3085 5.65166 20.6014 5.35876C20.8943 5.06587 20.8943 4.59099 20.6014 4.2981L19.1956 2.89229L19.1925 2.88909L19.1787 2.87537L17.773 1.46967C17.4801 1.17678 17.0052 1.17678 16.7123 1.46968C16.4194 1.76257 16.4194 2.23744 16.7123 2.53034L17.591 3.40904L14.5014 6.43871C13.719 5.83742 12.7769 5.43242 11.75 5.29853V1.75L13 1.75C13.4142 1.75 13.75 1.41421 13.75 1C13.75 0.585786 13.4142 0.25 13 0.25H9C8.58579 0.25 8.25 0.585787 8.25 1C8.25 1.41421 8.58579 1.75 9 1.75ZM8.02503 7.96486C8.79239 7.2126 9.84142 6.75 11 6.75C12.1586 6.75 13.2076 7.2126 13.975 7.96486C14.7627 8.73707 15.25 9.81095 15.25 11C15.25 12.189 14.7627 13.2629 13.975 14.0351C13.2076 14.7874 12.1586 15.25 11 15.25C9.84142 15.25 8.79239 14.7874 8.02503 14.0351C7.23731 13.2629 6.75 12.189 6.75 11C6.75 9.81095 7.23731 8.73707 8.02503 7.96486Z" fill="#181B26"/>
</g>
</svg>
