<svg width="22" height="21" viewBox="0 0 22 21" fill="none" xmlns="http://www.w3.org/2000/svg">
<g id="Danger Triangle">
<g id="Vector">
<path d="M11.7498 6C11.7498 5.58579 11.414 5.25 10.9998 5.25C10.5856 5.25 10.2498 5.58579 10.2498 6V12C10.2498 12.4142 10.5856 12.75 10.9998 12.75C11.414 12.75 11.7498 12.4142 11.7498 12V6Z" fill="#181B26"/>
<path fill-rule="evenodd" clip-rule="evenodd" d="M13.3385 0.747113C11.8498 0.0842957 10.1498 0.0842957 8.66106 0.747113C7.73024 1.16154 6.97857 1.95575 6.20235 3.05442C5.42857 4.14963 4.56202 5.65055 3.44253 7.58957L3.40162 7.66043C2.28212 9.59944 1.41556 11.1004 0.853974 12.3181C0.290612 13.5396 -0.0213648 14.5877 0.0851409 15.601C0.255481 17.2217 1.1055 18.694 2.42388 19.6518C3.24819 20.2507 4.31183 20.5046 5.65142 20.6275C6.98677 20.75 8.71987 20.75 10.9588 20.75H11.0407C13.2797 20.75 15.0128 20.75 16.3482 20.6275C17.6878 20.5046 18.7514 20.2507 19.5757 19.6518C20.8941 18.694 21.7441 17.2217 21.9144 15.601C22.021 14.5877 21.709 13.5396 21.1456 12.3181C20.584 11.1004 19.7175 9.59942 18.5979 7.66037L18.557 7.58948C17.4375 5.65051 16.571 4.14961 15.7972 3.05442C15.021 1.95575 14.2694 1.16154 13.3385 0.747113ZM9.27116 2.11743C10.3715 1.62752 11.6281 1.62752 12.7284 2.11743C13.2817 2.36379 13.8406 2.88446 14.5722 3.91996C15.3015 4.95228 16.1343 6.39321 17.2785 8.375C18.4227 10.3568 19.2542 11.7985 19.7835 12.9463C20.3145 14.0976 20.486 14.8419 20.4227 15.4442C20.2968 16.6421 19.6685 17.7303 18.694 18.4383C18.204 18.7943 17.4737 19.0179 16.2111 19.1338C14.9524 19.2492 13.2882 19.25 10.9998 19.25C8.71142 19.25 7.04714 19.2492 5.78846 19.1338C4.52588 19.0179 3.79556 18.7943 3.30555 18.4383C2.3311 17.7303 1.70283 16.6421 1.57692 15.4442C1.51361 14.8419 1.68512 14.0976 2.2161 12.9463C2.74544 11.7985 3.57693 10.3568 4.72111 8.375C5.86529 6.39321 6.69809 4.95228 7.42743 3.91997C8.15904 2.88446 8.71784 2.36379 9.27116 2.11743Z" fill="#181B26"/>
<path d="M11.9998 15C11.9998 15.5523 11.5521 16 10.9998 16C10.4476 16 9.99984 15.5523 9.99984 15C9.99984 14.4477 10.4476 14 10.9998 14C11.5521 14 11.9998 14.4477 11.9998 15Z" fill="#181B26"/>
</g>
</g>
</svg>
