<svg width="20" height="20" viewBox="0 0 20 20" fill="none" xmlns="http://www.w3.org/2000/svg">
<g id="Document Align Right 8">
<g id="Vector">
<path d="M14 6.75C14.4142 6.75 14.75 6.41421 14.75 6C14.75 5.58579 14.4142 5.25 14 5.25H6C5.58579 5.25 5.25 5.58579 5.25 6C5.25 6.41421 5.58579 6.75 6 6.75H14Z" fill="#181B26"/>
<path d="M11 10.75L14 10.75C14.4142 10.75 14.75 10.4142 14.75 10C14.75 9.58578 14.4142 9.25 14 9.25L11 9.25C10.5858 9.25 10.25 9.58579 10.25 10C10.25 10.4142 10.5858 10.75 11 10.75Z" fill="#181B26"/>
<path fill-rule="evenodd" clip-rule="evenodd" d="M14.4635 0.373728C13.3214 0.249985 11.8818 0.249991 10.0452 0.25H9.95475C8.11821 0.249991 6.67861 0.249985 5.53648 0.373728C4.37094 0.500006 3.42656 0.762324 2.62024 1.34815C2.13209 1.70281 1.70281 2.13209 1.34815 2.62023C0.762324 3.42656 0.500006 4.37094 0.373728 5.53648C0.249985 6.67861 0.249992 8.11821 0.25 9.95475V10.0452C0.249992 11.8818 0.249985 13.3214 0.373728 14.4635C0.500006 15.6291 0.762324 16.5734 1.34815 17.3798C1.70281 17.8679 2.13209 18.2972 2.62024 18.6518C3.42656 19.2377 4.37094 19.5 5.53648 19.6263C6.67859 19.75 8.11817 19.75 9.95465 19.75H10.011C11.1711 19.75 12.1685 19.75 13.0257 19.7206C14.8991 19.6564 16.2761 19.4537 17.3798 18.6518C17.8679 18.2972 18.2972 17.8679 18.6518 17.3798C19.4537 16.2761 19.6564 14.8991 19.7206 13.0257C19.75 12.1685 19.75 11.1711 19.75 10.011V9.95473C19.75 8.11824 19.75 6.67859 19.6263 5.53648C19.5 4.37094 19.2377 3.42656 18.6518 2.62023C18.2972 2.13209 17.8679 1.70281 17.3798 1.34815C16.5734 0.762324 15.6291 0.500006 14.4635 0.373728ZM3.50191 2.56168C4.00992 2.19259 4.66013 1.97745 5.69804 1.865C6.74999 1.75103 8.10843 1.75 10 1.75C11.8916 1.75 13.25 1.75103 14.302 1.865C15.3399 1.97745 15.9901 2.19259 16.4981 2.56168C16.8589 2.82382 17.1762 3.14111 17.4383 3.50191C17.8074 4.00992 18.0225 4.66013 18.135 5.69804C18.249 6.74999 18.25 8.10843 18.25 10C18.25 10.8483 18.25 11.5918 18.2392 12.2518C17.7645 12.2562 17.4151 12.271 17.1005 12.3208C14.6401 12.7105 12.7105 14.6401 12.3208 17.1005C12.271 17.4151 12.2562 17.7645 12.2518 18.2392C11.5918 18.2499 10.8483 18.25 10 18.25C8.10843 18.25 6.74999 18.249 5.69804 18.135C4.66013 18.0225 4.00992 17.8074 3.50191 17.4383C3.14111 17.1762 2.82382 16.8589 2.56168 16.4981C2.19259 15.9901 1.97745 15.3399 1.865 14.302C1.75103 13.25 1.75 11.8916 1.75 10C1.75 8.10843 1.75103 6.74999 1.865 5.69804C1.97745 4.66013 2.19259 4.00992 2.56168 3.50191C2.82382 3.14111 3.14111 2.82382 3.50191 2.56168ZM17.3352 13.8023C17.5402 13.7699 17.7776 13.7575 18.1826 13.7528C18.0888 15.1131 17.8738 15.8986 17.4383 16.4981C17.1762 16.8589 16.8589 17.1762 16.4981 17.4383C15.8986 17.8738 15.1131 18.0888 13.7528 18.1826C13.7575 17.7776 13.7699 17.5402 13.8023 17.3352C14.0904 15.5166 15.5166 14.0904 17.3352 13.8023Z" fill="#181B26"/>
</g>
</g>
</svg>
