<svg width="17" height="23" viewBox="0 0 17 23" fill="none" xmlns="http://www.w3.org/2000/svg">
<g id="Attachment">
<g id="Vector">
<path d="M10.7084 2.05515C11.323 1.74961 12.0454 1.6587 12.7604 1.85029C14.3163 2.2672 15.2397 3.86652 14.8228 5.42246L12.4503 14.2768C12.0334 15.8327 10.434 16.7561 8.87811 16.3392C7.32216 15.9223 6.3988 14.3229 6.81571 12.767L7.76472 9.22527C7.87192 8.82517 7.63448 8.41392 7.23439 8.30671C6.83429 8.19951 6.42303 8.43694 6.31583 8.83704L5.36682 12.3788C4.7355 14.7349 6.13374 17.1567 8.48988 17.7881C10.846 18.4194 13.2678 17.0211 13.8992 14.665L16.2717 5.81069C16.903 3.45455 15.5048 1.03272 13.1486 0.401397C12.0672 0.111622 10.9701 0.249958 10.0407 0.711953C9.47083 0.99524 8.96281 1.40067 8.55828 1.90501C8.29911 2.22812 8.35094 2.70016 8.67406 2.95933C8.99717 3.2185 9.46921 3.16667 9.72838 2.84355C9.99495 2.51122 10.3307 2.24289 10.7084 2.05515Z" fill="#181B26"/>
<path d="M4.22299 8.27627C4.6399 6.72033 6.23922 5.79696 7.79516 6.21387C9.3511 6.63079 10.2745 8.2301 9.85755 9.78605L8.90855 13.3278C8.80134 13.7279 9.03878 14.1391 9.43888 14.2463C9.83898 14.3535 10.2502 14.1161 10.3574 13.716L11.3064 10.1743C11.9378 7.81813 10.5395 5.39631 8.18339 4.76499C5.82725 4.13366 3.40542 5.5319 2.7741 7.88804L0.40159 16.7424C-0.229736 19.0985 1.1685 21.5203 3.52465 22.1516C4.6061 22.4414 5.70319 22.3031 6.63256 21.8411C7.20244 21.5578 7.71046 21.1524 8.11499 20.648C8.37416 20.3249 8.32232 19.8529 7.99921 19.5937C7.6761 19.3345 7.20406 19.3864 6.94489 19.7095C6.67832 20.0418 6.34253 20.3102 5.96485 20.4979C5.35022 20.8034 4.62787 20.8943 3.91287 20.7028C2.35693 20.2858 1.43357 18.6865 1.85048 17.1306L4.22299 8.27627Z" fill="#181B26"/>
</g>
</g>
</svg>
