<svg width="24" height="21" viewBox="0 0 24 21" fill="none" xmlns="http://www.w3.org/2000/svg">
<g id="Headphone 2">
<g id="Vector">
<path fill-rule="evenodd" clip-rule="evenodd" d="M10.397 1.89454C11.457 1.70182 12.543 1.70182 13.603 1.89454C18.3658 2.76051 21.5798 7.25273 20.8617 12.0401L20.8535 12.0946C19.4028 12.1708 18.25 13.3711 18.25 14.8408V16.8408C18.25 18.3596 19.4812 19.5908 21 19.5908C22.5188 19.5908 23.75 18.3596 23.75 16.8408V14.8408C23.75 13.7999 23.1721 12.8952 22.3203 12.4281L22.3451 12.2626C23.1834 6.67386 19.4314 1.42967 13.8713 0.418734C12.6339 0.193755 11.3661 0.193755 10.1287 0.418734C4.56859 1.42967 0.816569 6.67386 1.65488 12.2626L1.67971 12.4281C0.827854 12.8952 0.25 13.7999 0.25 14.8408V16.8408C0.25 18.3596 1.48122 19.5908 3 19.5908C4.51878 19.5908 5.75 18.3596 5.75 16.8408V14.8408C5.75 13.3711 4.59716 12.1708 3.14647 12.0946L3.13829 12.0401C2.42018 7.25273 5.63419 2.76051 10.397 1.89454ZM2.69261 13.6287C2.79017 13.6041 2.893 13.5908 3 13.5908C3.69036 13.5908 4.25 14.1504 4.25 14.8408V16.8408C4.25 17.5312 3.69036 18.0908 3 18.0908C2.30964 18.0908 1.75 17.5312 1.75 16.8408V14.8408C1.75 14.2573 2.15048 13.7655 2.69261 13.6287ZM19.75 14.8408C19.75 14.1504 20.3096 13.5908 21 13.5908C21.107 13.5908 21.2098 13.6041 21.3074 13.6287C21.8495 13.7655 22.25 14.2573 22.25 14.8408V16.8408C22.25 17.5312 21.6904 18.0908 21 18.0908C20.3096 18.0908 19.75 17.5312 19.75 16.8408V14.8408Z" fill="#181B26"/>
<path d="M7.53033 11.3105C7.23744 11.0176 6.76256 11.0176 6.46967 11.3105C6.17678 11.6034 6.17678 12.0782 6.46967 12.3711L6.86967 12.7711C6.93136 12.8328 6.9566 12.8581 6.97686 12.8789C8.57962 14.5283 8.57962 17.1533 6.97686 18.8027C6.9566 18.8235 6.93136 18.8488 6.86967 18.9105L6.46967 19.3105C6.17678 19.6034 6.17678 20.0782 6.46967 20.3711C6.76256 20.664 7.23744 20.664 7.53033 20.3711L7.93574 19.9657C7.94257 19.9589 7.94929 19.9522 7.95549 19.946C7.99888 19.9026 8.02752 19.8738 8.0526 19.848C10.221 17.6166 10.221 14.065 8.0526 11.8336C8.02388 11.804 7.99048 11.7706 7.93563 11.7158L7.53033 11.3105Z" fill="#181B26"/>
<path d="M17.5303 12.3711C17.8232 12.0782 17.8232 11.6034 17.5303 11.3105C17.2374 11.0176 16.7626 11.0176 16.4697 11.3105L16.0644 11.7157C16.0576 11.7226 16.051 11.7291 16.0448 11.7353C16.0013 11.7789 15.9725 11.8077 15.9474 11.8336C13.779 14.065 13.779 17.6166 15.9474 19.848C15.9761 19.8776 16.0095 19.9109 16.0643 19.9658L16.4697 20.3711C16.7626 20.664 17.2374 20.664 17.5303 20.3711C17.8232 20.0782 17.8232 19.6034 17.5303 19.3105L17.1303 18.9105C17.1226 18.9028 17.1155 18.8956 17.1088 18.889C17.0624 18.8425 17.0409 18.8209 17.0231 18.8027C15.4204 17.1533 15.4204 14.5283 17.0231 12.8789C17.0434 12.8581 17.0686 12.8328 17.1303 12.7711L17.5303 12.3711Z" fill="#181B26"/>
</g>
</g>
</svg>
