<svg width="9" height="13" viewBox="0 0 9 13" fill="none" xmlns="http://www.w3.org/2000/svg">
<path id="Lock" d="M2.10156 12.3555H7.67969C8.43555 12.3555 8.80469 11.9805 8.80469 11.1602V6.85938C8.80469 6.12109 8.5 5.74023 7.87305 5.67578V4.19922C7.87305 1.99023 6.42578 0.923828 4.89062 0.923828C3.35547 0.923828 1.9082 1.99023 1.9082 4.19922V5.70508C1.33398 5.79297 0.976562 6.16797 0.976562 6.85938V11.1602C0.976562 11.9805 1.3457 12.3555 2.10156 12.3555ZM2.85156 4.07617C2.85156 2.60547 3.79492 1.82617 4.89062 1.82617C5.98633 1.82617 6.92969 2.60547 6.92969 4.07617V5.66992L2.85156 5.67578V4.07617Z" fill="#9E9E9E"/>
</svg>
