<svg width="13" height="12" viewBox="0 0 13 12" fill="none" xmlns="http://www.w3.org/2000/svg">
<path d="M8.64944 3.33178C8.57939 3.24126 8.49815 3.16002 8.40763 3.08997C8.20121 2.93022 7.96131 2.86505 7.69036 2.83546C7.42979 2.80701 7.10395 2.80847 6.70528 2.81025L5.64677 2.81498C5.47326 2.81575 5.33322 2.95704 5.334 3.13055C5.33477 3.30406 5.47606 3.4441 5.64957 3.44332L6.68935 3.43868C7.11134 3.4368 7.40128 3.43598 7.62214 3.4601C7.69392 3.46794 7.7539 3.47804 7.80485 3.49025L3.35255 7.94254C3.22986 8.06524 3.22986 8.26416 3.35255 8.38686C3.47525 8.50955 3.67417 8.50955 3.79687 8.38686L8.24916 3.93456C8.26137 3.98551 8.27147 4.04549 8.27931 4.11727C8.30343 4.33813 8.30261 4.62807 8.30073 5.05006L8.29609 6.08984C8.29531 6.26335 8.43535 6.40464 8.60886 6.40541C8.78237 6.40619 8.92366 6.26615 8.92444 6.09264L8.92916 5.03412C8.93094 4.63545 8.9324 4.30962 8.90395 4.04905C8.87436 3.7781 8.80919 3.5382 8.64944 3.33178Z" fill="#181B26"/>
</svg>
