<svg width="24" height="24" viewBox="0 0 24 24" fill="none" xmlns="http://www.w3.org/2000/svg">
<path fill-rule="evenodd" clip-rule="evenodd" d="M9.91102 4.31377C7.42573 4.26882 4.99133 5.42351 3.46828 7.54892C3.24632 7.85867 3.02635 8.23969 2.64574 8.89897L2.61865 8.9459C2.61465 8.95281 2.61064 8.95975 2.60661 8.96672C2.56107 9.04545 2.5138 9.1272 2.47768 9.20691C2.13312 9.96737 2.37372 10.8653 3.05235 11.3516C3.12349 11.4026 3.2053 11.4498 3.28411 11.4952C3.29108 11.4992 3.29803 11.5032 3.30494 11.5072L9.47537 15.0697L5.85037 21.3484C5.64327 21.7071 5.76617 22.1658 6.12489 22.3729C6.48361 22.58 6.9423 22.4571 7.14941 22.0984L10.7744 15.8197L16.9448 19.3822C16.9518 19.3862 16.9587 19.3902 16.9657 19.3942C17.0444 19.4398 17.1262 19.487 17.2059 19.5232C17.9663 19.8677 18.8643 19.6271 19.3506 18.9485C19.4016 18.8773 19.4487 18.7955 19.4942 18.7167C19.4982 18.7097 19.5022 18.7028 19.5061 18.6959L19.5332 18.649C19.9139 17.9897 20.1339 17.6087 20.2911 17.2616C21.3705 14.8794 21.153 12.1932 19.8707 10.0631L19.9788 9.87584C21.5666 7.12565 20.6244 3.60901 17.8742 2.02119C15.124 0.433374 11.6073 1.37565 10.0195 4.12584L9.91102 4.31377ZM11.5482 4.51969C12.0284 4.63325 12.5033 4.79413 12.9663 5.00393C13.3134 5.1612 13.6944 5.38119 14.3537 5.76184L16.3961 6.94103C17.0554 7.32164 17.4364 7.5416 17.7461 7.76356C18.159 8.05937 18.5354 8.3898 18.8736 8.7485C19.7636 6.78171 19.0331 4.42234 17.1242 3.32023C15.2151 2.21805 12.8064 2.76525 11.5482 4.51969ZM10.2715 5.83263C8.1341 5.66036 5.99438 6.59896 4.68755 8.42264C4.51411 8.66467 4.3329 8.97671 3.91768 9.6959C3.88739 9.74836 3.86939 9.7796 3.85618 9.80341C3.84778 9.81855 3.84355 9.82691 3.84355 9.82691C3.79509 9.93503 3.82921 10.0624 3.92524 10.1318C3.92524 10.1318 3.93309 10.1369 3.94792 10.1458C3.97126 10.1598 4.00248 10.1779 4.05494 10.2082L10.8749 14.1457L17.6948 18.0832C17.7473 18.1134 17.7786 18.1315 17.8024 18.1447C17.8165 18.1525 17.8233 18.156 17.8255 18.1571C17.9341 18.2063 18.0618 18.1717 18.1313 18.0748C18.1288 18.0783 18.1315 18.0751 18.1447 18.0529C18.1588 18.0296 18.1768 17.9984 18.2071 17.9459C18.6223 17.2267 18.802 16.9138 18.9248 16.6425C19.8524 14.5955 19.5929 12.2687 18.3697 10.5027C17.9709 9.92697 17.4694 9.41065 16.8724 8.98283C16.6304 8.8094 16.3184 8.62818 15.5992 8.21296L13.6506 7.08796C12.9314 6.67275 12.6185 6.49311 12.3473 6.37022C11.6748 6.06553 10.9732 5.88918 10.2715 5.83263Z" fill="#FAFAFA"/>
</svg>
