<svg width="16" height="16" viewBox="0 0 16 16" fill="none" xmlns="http://www.w3.org/2000/svg">
<g id="Search 2">
<g id="Vector">
<path fill-rule="evenodd" clip-rule="evenodd" d="M7.33325 0.166656C3.7434 0.166656 0.833252 3.07681 0.833252 6.66666C0.833252 10.2565 3.7434 13.1667 7.33325 13.1667C10.9231 13.1667 13.8333 10.2565 13.8333 6.66666C13.8333 3.07681 10.9231 0.166656 7.33325 0.166656ZM1.83325 6.66666C1.83325 3.62909 4.29569 1.16666 7.33325 1.16666C10.3708 1.16666 12.8333 3.62909 12.8333 6.66666C12.8333 9.70422 10.3708 12.1667 7.33325 12.1667C4.29569 12.1667 1.83325 9.70422 1.83325 6.66666Z" fill="#ADB0C7"/>
<path d="M13.0202 11.6465C12.8249 11.4512 12.5083 11.4512 12.3131 11.6465C12.1178 11.8418 12.1178 12.1583 12.3131 12.3536L14.9797 15.0202C15.1749 15.2155 15.4915 15.2155 15.6868 15.0202C15.882 14.825 15.882 14.5084 15.6868 14.3131L13.0202 11.6465Z" fill="#ADB0C7"/>
</g>
</g>
</svg>
