<svg width="72" height="72" viewBox="0 0 72 72" fill="none" xmlns="http://www.w3.org/2000/svg">
<path d="M35.25 24C35.25 22.7574 34.2426 21.75 33 21.75C31.7574 21.75 30.75 22.7574 30.75 24V30.75H24C22.7574 30.75 21.75 31.7574 21.75 33C21.75 34.2426 22.7574 35.25 24 35.25H30.75V42C30.75 43.2426 31.7574 44.25 33 44.25C34.2426 44.25 35.25 43.2426 35.25 42V35.25H42C43.2426 35.25 44.25 34.2426 44.25 33C44.25 31.7574 43.2426 30.75 42 30.75H35.25V24Z" fill="#FAFAFA"/>
<path fill-rule="evenodd" clip-rule="evenodd" d="M33 3.75C16.8457 3.75 3.75 16.8457 3.75 33C3.75 49.1543 16.8457 62.25 33 62.25C49.1543 62.25 62.25 49.1543 62.25 33C62.25 16.8457 49.1543 3.75 33 3.75ZM8.25 33C8.25 19.331 19.331 8.25 33 8.25C46.669 8.25 57.75 19.331 57.75 33C57.75 46.669 46.669 57.75 33 57.75C19.331 57.75 8.25 46.669 8.25 33Z" fill="#FAFAFA"/>
<path d="M58.0763 54.8947C57.1976 54.016 55.773 54.016 54.8943 54.8947C54.0156 55.7733 54.0156 57.1979 54.8943 58.0766L66.894 70.0765C67.7727 70.9552 69.1973 70.9552 70.076 70.0765C70.9547 69.1978 70.9547 67.7732 70.076 66.8945L58.0763 54.8947Z" fill="#FAFAFA"/>
</svg>
