<svg width="24" height="24" viewBox="0 0 24 24" fill="none" xmlns="http://www.w3.org/2000/svg">
<g clip-path="url(#clip0_1305_1496)">
<path d="M7.00018 12C7.00018 9.23859 9.23877 7 12.0002 7C12.7707 7 13.4918 7.18872 14.1436 7.5H23.1198C21.3387 3.104 17.035 0 12.0002 0C8.14801 0 4.72888 1.82233 2.5332 4.64392L7.0426 12.4211C7.03064 12.28 7.00018 12.1442 7.00018 12Z" fill="#F44336"/>
<path d="M12 17C9.38281 17 7.25964 14.9821 7.04242 12.4211L2.53302 4.64392C0.951172 6.6767 0 9.22473 0 12C0 18.0725 4.51489 23.0784 10.3684 23.8763L14.8195 16.1263C14.0164 16.6761 13.0467 17 12 17Z" fill="#00B060"/>
<path d="M14.1432 7.5C15.8274 8.30438 16.9998 10.0091 16.9998 12C16.9998 13.7147 16.1348 15.2255 14.8192 16.1263L10.3682 23.8763C10.9031 23.9492 11.4448 24 11.9998 24C18.6272 24 23.9998 18.6274 23.9998 12C23.9998 10.4073 23.6827 8.89056 23.1193 7.5H14.1432Z" fill="#FFC107"/>
<path d="M12 16C14.2091 16 16 14.2091 16 12C16 9.79086 14.2091 8 12 8C9.79086 8 8 9.79086 8 12C8 14.2091 9.79086 16 12 16Z" fill="#2196F3"/>
<path d="M16.456 9.76105L23.1197 7.5H14.1436C15.1435 7.97754 15.9551 8.77728 16.456 9.76105Z" fill="url(#paint0_linear_1305_1496)"/>
<path d="M7.83294 9.26058L2.54297 4.62018L7.03104 12.3937C6.94463 11.289 7.2314 10.1862 7.83294 9.26058Z" fill="url(#paint1_linear_1305_1496)"/>
<path d="M11.7106 16.9784L10.3369 23.8799L14.825 16.1063C13.9115 16.7335 12.813 17.0366 11.7106 16.9784Z" fill="url(#paint2_linear_1305_1496)"/>
<path d="M12 24C18.6274 24 24 18.6274 24 12C24 5.37258 18.6274 0 12 0C5.37258 0 0 5.37258 0 12C0 18.6274 5.37258 24 12 24Z" fill="url(#paint3_linear_1305_1496)"/>
</g>
<defs>
<linearGradient id="paint0_linear_1305_1496" x1="16.3876" y1="5.25597" x2="20.8757" y2="9.74403" gradientUnits="userSpaceOnUse">
<stop stop-opacity="0.1"/>
<stop offset="1" stop-opacity="0"/>
</linearGradient>
<linearGradient id="paint1_linear_1305_1496" x1="1.88399" y1="5.27916" x2="8.0148" y2="11.41" gradientUnits="userSpaceOnUse">
<stop stop-opacity="0.1"/>
<stop offset="1" stop-opacity="0"/>
</linearGradient>
<linearGradient id="paint2_linear_1305_1496" x1="10.6385" y1="18.0506" x2="13.4023" y2="20.8145" gradientUnits="userSpaceOnUse">
<stop stop-opacity="0.1"/>
<stop offset="1" stop-opacity="0"/>
</linearGradient>
<linearGradient id="paint3_linear_1305_1496" x1="1.12171" y1="6.92737" x2="22.8783" y2="17.0726" gradientUnits="userSpaceOnUse">
<stop stop-color="white" stop-opacity="0.2"/>
<stop offset="1" stop-color="white" stop-opacity="0"/>
</linearGradient>
<clipPath id="clip0_1305_1496">
<rect width="24" height="24" fill="white"/>
</clipPath>
</defs>
</svg>
